<svg width="107" height="107" viewBox="0 0 107 107" fill="none" xmlns="http://www.w3.org/2000/svg">
<path d="M53.5001 18.7271L4.69928 37.0278L53.5001 61.4282L76.7433 49.8066L54.9385 43.14C54.4895 43.3553 53.998 43.4676 53.5001 43.4687C52.6132 43.4687 51.7627 43.1164 51.1357 42.4893C50.5086 41.8623 50.1563 41.0118 50.1563 40.125C50.1563 39.2381 50.5086 38.3876 51.1357 37.7606C51.7627 37.1335 52.6132 36.7812 53.5001 36.7812L52.9471 38.5789L56.821 39.7707L56.8227 39.7824L62.5393 41.5306L95.088 51.5449V54.0832C94.6378 54.3895 94.2692 54.8011 94.0142 55.2822C93.7593 55.7633 93.6257 56.2994 93.6251 56.8439C93.6257 57.4009 93.7654 57.9489 94.0316 58.4382C94.2977 58.9274 94.6819 59.3425 95.1492 59.6456C93.6272 65.3979 93.6251 78.4491 93.6251 83.5937C96.9688 85.7661 96.9688 85.8455 100.313 83.5937C100.313 78.4498 100.311 65.401 98.7891 59.6474C99.2565 59.3441 99.6408 58.9287 99.9068 58.439C100.173 57.9494 100.312 57.401 100.313 56.8437C100.312 56.2986 100.179 55.7618 99.9242 55.28C99.6692 54.7982 99.3004 54.3861 98.8497 54.0795V48.7671L86.4519 44.9525L102.301 37.0278L53.5001 18.7271ZM24.9994 52.0371L22.2569 68.4925C27.7271 69.2078 34.2706 72.3873 40.286 76.147C43.707 78.2853 46.9114 80.6324 49.5139 82.9097C51.1047 84.3015 52.4349 85.6369 53.5001 86.9508C54.5653 85.6367 55.8954 84.3015 57.4862 82.9097C60.0887 80.6324 63.2929 78.2853 66.7141 76.147C72.7295 72.3873 79.2731 69.2078 84.7432 68.4925L82.0003 52.0371H80.6942L53.5001 65.6342L26.3055 52.0371H24.9994Z" fill="#3C91BA" fill-opacity="0.3"/>
</svg>
