<svg width="81" height="81" viewBox="0 0 81 81" fill="none" xmlns="http://www.w3.org/2000/svg">
<path d="M48.9375 39.6562C51.2675 39.6562 53.1562 37.7675 53.1562 35.4375C53.1562 33.1075 51.2675 31.2188 48.9375 31.2188C46.6075 31.2188 44.7188 33.1075 44.7188 35.4375C44.7188 37.7675 46.6075 39.6562 48.9375 39.6562Z" fill="white" fill-opacity="0.9"/>
<path d="M32.0625 39.6562C34.3925 39.6562 36.2812 37.7675 36.2812 35.4375C36.2812 33.1075 34.3925 31.2188 32.0625 31.2188C29.7325 31.2188 27.8438 33.1075 27.8438 35.4375C27.8438 37.7675 29.7325 39.6562 32.0625 39.6562Z" fill="white" fill-opacity="0.9"/>
<path d="M54.3375 47.25H26.6625C26.0212 47.25 25.5825 47.925 25.8862 48.4987C28.6875 53.7975 34.1887 57.375 40.5 57.375C46.8112 57.375 52.3125 53.7975 55.1138 48.4987C55.1738 48.3663 55.2002 48.2211 55.1907 48.076C55.1812 47.9309 55.1361 47.7904 55.0593 47.6669C54.9826 47.5435 54.8765 47.4408 54.7506 47.3681C54.6247 47.2954 54.4828 47.2548 54.3375 47.25ZM77.4225 38.2725C76.998 35.7817 75.8847 33.4594 74.2087 31.5686C72.5326 29.6778 70.3607 28.294 67.9387 27.5737C66.162 23.8354 63.6479 20.4947 60.5475 17.7525C55.215 12.9938 48.195 10.125 40.5 10.125C32.805 10.125 25.785 12.9938 20.4525 17.7525C17.3475 20.4863 14.8162 23.8275 13.0612 27.5737C10.6355 28.2869 8.45949 29.6685 6.7823 31.5606C5.10511 33.4527 3.99447 35.7787 3.5775 38.2725C3.4425 38.9813 3.375 39.7237 3.375 40.5C3.375 41.2763 3.4425 42.0187 3.5775 42.7275C4.00197 45.2183 5.11526 47.5406 6.79133 49.4314C8.46741 51.3222 10.6393 52.706 13.0612 53.4263C14.8179 57.1392 17.3094 60.4574 20.385 63.18C25.7175 67.9725 32.7712 70.875 40.5 70.875C48.2287 70.875 55.2825 67.9725 60.6487 63.18C63.6862 60.48 66.2175 57.1387 67.9725 53.4263C70.3901 52.7042 72.5569 51.3191 74.2272 49.428C75.8975 47.537 77.0045 45.2157 77.4225 42.7275C77.5575 42.0187 77.625 41.2763 77.625 40.5C77.625 39.7237 77.5575 38.9813 77.4225 38.2725ZM64.125 47.25C63.7875 47.25 63.4837 47.1825 63.1462 47.1488C62.4712 49.41 61.4925 51.5025 60.2438 53.4263C56.025 59.8725 48.7687 64.125 40.5 64.125C32.2313 64.125 24.975 59.8725 20.7563 53.4263C19.5075 51.5025 18.5287 49.41 17.8538 47.1488C17.5162 47.1825 17.2125 47.25 16.875 47.25C13.1625 47.25 10.125 44.2125 10.125 40.5C10.125 36.7875 13.1625 33.75 16.875 33.75C17.2125 33.75 17.5162 33.8175 17.8538 33.8512C18.5287 31.59 19.5075 29.4975 20.7563 27.5737C24.975 21.1275 32.2313 16.875 40.5 16.875C48.7687 16.875 56.025 21.1275 60.2438 27.5737C61.4925 29.4975 62.4712 31.59 63.1462 33.8512C63.4837 33.8175 63.7875 33.75 64.125 33.75C67.8375 33.75 70.875 36.7875 70.875 40.5C70.875 44.2125 67.8375 47.25 64.125 47.25Z" fill="white" fill-opacity="0.9"/>
</svg>
