<svg width="38" height="30" viewBox="0 0 38 30" fill="none" xmlns="http://www.w3.org/2000/svg">
<path d="M21.1 18.1C21.1 9.3 27.4 0.899994 35.1 0.899994H37.8V1.5C35.2 4 33.2 8.9 33.2 11.8C33.2 13.7 33.7 15.2 34.8 16.3C36.3 17.8 37.5 19 37.5 22.1C37.5 26.2 34.2 29.5 29.7 29.5C24.6 29.5 21.1 25.5 21.1 18.1ZM0.3 18.1C0.3 9.3 6.6 0.899994 14.3 0.899994H17V1.5C14.3 4 12.4 8.9 12.4 11.8C12.4 13.7 12.9 15.2 14 16.3C15.5 17.8 16.7 19 16.7 22.1C16.7 26.2 13.4 29.5 8.9 29.5C3.7 29.5 0.3 25.5 0.3 18.1Z" fill="#1E1E1E" fill-opacity="0.3"/>
</svg>
