<svg width="124" height="124" viewBox="0 0 124 124" fill="none" xmlns="http://www.w3.org/2000/svg">
<path d="M48.4657 1.28124C47.5608 0.437994 46.3638 -0.0210772 45.1271 0.000743743C43.8903 0.0225647 42.7103 0.523574 41.8357 1.39822C40.961 2.27287 40.46 3.45286 40.4382 4.68961C40.4164 5.92635 40.8755 7.12329 41.7187 8.02824L58.5671 24.8767C59.0042 25.3457 59.5312 25.7219 60.1168 25.9828C60.7024 26.2437 61.3345 26.384 61.9755 26.3953C62.6165 26.4066 63.2532 26.2887 63.8476 26.0486C64.442 25.8085 64.982 25.4512 65.4353 24.9978C65.8886 24.5445 66.246 24.0045 66.4861 23.4101C66.7262 22.8157 66.8441 22.179 66.8328 21.538C66.8215 20.897 66.6812 20.2649 66.4203 19.6793C66.1593 19.0937 65.7831 18.5667 65.3141 18.1297L48.4657 1.28124ZM14.7752 8.01552C13.8789 7.11828 12.6627 6.61387 11.3945 6.61328C10.1262 6.61268 8.90957 7.11594 8.01233 8.01233C7.11509 8.90873 6.61069 10.1248 6.6101 11.3931C6.6095 12.6614 7.11275 13.878 8.00915 14.7752L45.0795 51.8456C45.5201 52.3013 46.047 52.6647 46.6295 52.9146C47.2121 53.1646 47.8386 53.296 48.4724 53.3012C49.1063 53.3064 49.7348 53.1853 50.3214 52.945C50.908 52.7047 51.4408 52.35 51.8888 51.9015C52.3369 51.4531 52.6911 50.9199 52.9308 50.3331C53.1706 49.7463 53.2911 49.1176 53.2853 48.4838C53.2795 47.8499 53.1475 47.2236 52.897 46.6413C52.6466 46.059 52.2826 45.5324 51.8265 45.0922L14.7752 8.01552ZM83.06 36.2193C82.6638 35.4257 82.0543 34.7582 81.2999 34.2917C80.5455 33.8252 79.676 33.5781 78.789 33.5781C77.902 33.5781 77.0326 33.8252 76.2782 34.2917C75.5238 34.7582 74.9143 35.4257 74.5181 36.2193L61.7497 61.7497L36.2256 74.5181C35.4321 74.9143 34.7646 75.5238 34.2981 76.2782C33.8316 77.0326 33.5844 77.902 33.5844 78.789C33.5844 79.676 33.8316 80.5455 34.2981 81.2999C34.7646 82.0543 35.4321 82.6638 36.2256 83.06L61.756 95.8284L74.5244 121.359C74.9207 122.152 75.5302 122.82 76.2846 123.286C77.039 123.753 77.9084 124 78.7954 124C79.6824 124 80.5518 123.753 81.3062 123.286C82.0606 122.82 82.6701 122.152 83.0664 121.359L95.8348 95.8284L121.365 83.06C122.159 82.6638 122.826 82.0543 123.293 81.2999C123.759 80.5455 124.006 79.676 124.006 78.789C124.006 77.902 123.759 77.0326 123.293 76.2782C122.826 75.5238 122.159 74.9143 121.365 74.5181L95.8348 61.7497L83.06 36.2193ZM8.02824 41.7187C7.12329 40.8755 5.92635 40.4164 4.68961 40.4382C3.45286 40.46 2.27287 40.961 1.39822 41.8357C0.523574 42.7103 0.0225647 43.8903 0.000743743 45.1271C-0.0210772 46.3638 0.437994 47.5608 1.28124 48.4657L18.1297 65.3141C19.0346 66.1574 20.2315 66.6164 21.4683 66.5946C22.705 66.5728 23.885 66.0718 24.7597 65.1971C25.6343 64.3225 26.1353 63.1425 26.1572 61.9058C26.179 60.669 25.7199 59.4721 24.8767 58.5671L8.02824 41.7187Z" fill="#FAB548"/>
</svg>
