<svg width="469" height="391" viewBox="0 0 469 391" fill="none" xmlns="http://www.w3.org/2000/svg">
<path d="M195.317 6.72409C91.2554 6.72409 6.89633 91.0831 6.89633 195.145C6.89633 299.207 91.2554 383.566 195.317 383.566C299.38 383.566 383.739 299.207 383.739 195.145C383.739 184.409 382.841 173.883 381.116 163.638C381.987 163.666 382.861 163.681 383.739 163.681C426.98 163.681 462.034 128.627 462.034 85.3854C462.034 42.144 426.98 7.09006 383.739 7.09006C353.601 7.09006 327.44 24.1183 314.352 49.0786C281.902 22.6021 240.464 6.72409 195.317 6.72409Z" fill="#F5F7F5"/>
<path d="M195.317 3.44971C89.447 3.44971 3.62195 89.2747 3.62195 195.145C3.62195 301.016 89.447 386.841 195.317 386.841C301.188 386.841 387.013 301.016 387.013 195.145C387.013 185.567 386.31 176.151 384.953 166.946C429.443 166.297 465.309 130.03 465.309 85.3854C465.309 40.3357 428.789 3.81567 383.739 3.81567C353.747 3.81567 327.541 20.0028 313.372 44.1038C280.83 18.6339 239.843 3.44971 195.317 3.44971Z" stroke="url(#paint0_linear_68_2)" stroke-opacity="0.75" stroke-width="6.54874"/>
<defs>
<linearGradient id="paint0_linear_68_2" x1="234.465" y1="383.566" x2="234.465" y2="6.72409" gradientUnits="userSpaceOnUse">
<stop stop-color="#3C91BA"/>
<stop offset="1" stop-color="white"/>
</linearGradient>
</defs>
</svg>
